<svg width="400" height="400" viewBox="0 0 400 400" fill="none" xmlns="http://www.w3.org/2000/svg">
<path d="M84.7079 314.836C84.2873 313.574 84.1277 312.238 84.2387 310.912C84.3497 309.586 84.7291 308.296 85.3539 307.122C80.0593 302.596 74.1641 298.824 67.8359 295.912C63.2359 300.724 57.5039 307.644 55.2959 309.972C59.0959 307.464 93.9419 332.43 95.3099 338.662C95.9559 330.074 87.1159 322.384 84.7079 314.836Z" fill="#B8FFD4"/>
<path d="M185.94 300.814C184.424 299.028 183.649 296.73 183.774 294.392C177.208 293.304 170.532 293.034 163.9 293.592C163.815 295.716 163.614 297.836 163.3 299.938C162.578 304.538 161.552 306.36 160.83 310.654C161.932 306.512 204.72 314.188 206.696 318.976C205.168 309.782 191.374 307.502 185.94 300.814Z" fill="#B8FFD4"/>
<path d="M366.972 245.41C364.73 243.81 359.372 240.546 352.372 236.366L319.772 243.244L310.2 198.138L315.558 196.998C311.346 168.752 310.534 164.322 306.97 149.27C296.598 160.334 271.516 166.01 260.724 162.988C261.008 163.84 261.218 164.388 262.168 166.674C244.568 205.092 241.838 212.122 241.306 218.43C240.706 225.83 241.496 230.78 255.632 285.69C264.232 288.09 278.606 284.046 283.296 279.078C279.344 262.016 275.316 245.03 270.946 222.8C271.484 221.316 272.12 219.87 272.846 218.468C276.678 207.304 279.152 195.719 280.218 183.964C287.274 215.944 289.348 226.842 294.202 232.262C299.104 237.696 304.802 241.154 352.228 267.862C359.34 266.02 368.2 253.302 366.972 245.41Z" fill="#B8FFD4"/>
<path d="M94.6259 230.97C71.5579 233.816 68.0259 234.224 48.3799 236.784L88.9639 265.2C90.7159 263.428 98.9339 255.112 100.668 253.306C99.7479 250.4 96.0879 236.814 94.6259 230.97Z" fill="#B8FFD4"/>
<path d="M62.288 226.524C62.288 226.502 62.364 219.38 62.364 219.38C60.5318 219.648 58.876 220.62 57.748 222.088C56.62 223.556 56.1084 225.406 56.322 227.246L57.272 234.046L63.2 233.286L62.288 226.524Z" fill="#B8FFD4"/>
<path d="M87.3999 223.446C87.1813 221.716 86.3255 220.132 84.9999 219C83.5277 219.52 81.9955 219.852 80.4399 219.988C80.7619 221.388 80.8639 221.884 81.1999 223.56C81.5119 223.872 81.4179 223.804 82.3779 230.96L88.3059 230.2L87.3999 223.446Z" fill="#B8FFD4"/>
<path d="M366.934 249.134C365.348 256.236 361.14 262.478 355.154 266.614C355.754 274.366 359.068 292.036 362.222 296.786C368.422 289.376 376.51 262.7 376.928 252.478C373.686 251.114 370.344 249.996 366.934 249.134Z" fill="#E9E9E9"/>
<path d="M281.13 280.902C274.91 284.584 267.8 286.488 260.572 286.412C254.878 293.7 250.422 301.876 247.386 310.612C257.186 309.51 279.23 299.63 286.526 292.144C285.13 288.216 283.322 284.448 281.13 280.902Z" fill="#E9E9E9"/>
<path d="M93.302 339.662C84.838 337.6 51.8 315.786 55.03 310.2C57.94 306.708 90.762 330.3 94.864 337.67C95.8 339.366 95.328 340.158 93.302 339.662Z" fill="#E9E9E9"/>
<path d="M188.042 312.362C176.082 309.876 162.542 308.426 160.988 310.438C157.66 314.742 181.61 318.838 187.018 319.54C195.958 320.712 204.244 321.016 206.314 319.962C210.576 317.8 193.012 313.4 188.042 312.362Z" fill="#E9E9E9"/>
<path d="M191.374 298.686C191.298 297.318 189.474 295.57 183.812 294.43C183.67 296.772 184.447 299.076 185.978 300.852C189.816 300.852 191.45 299.826 191.374 298.686Z" fill="#E9E9E9"/>
<path d="M158.048 296.558C157.896 298.192 159.834 299.332 163.33 299.978C163.634 297.85 163.824 295.76 163.93 293.632C159.91 294.126 158.2 295.2 158.048 296.558Z" fill="#E9E9E9"/>
<path d="M67.8359 295.874C66.2019 297.546 64.2359 299.788 62.2499 302.03C59.2859 299.598 58.2499 296.862 59.3239 295.418L59.5519 295.152C60.6539 294.126 63.3519 294.012 67.8359 295.874Z" fill="#E9E9E9"/>
<path d="M85.4 307.122C90.112 311.15 91.904 314.122 91.29 315.406C90.764 316.51 88.478 316.47 84.716 314.836C84.2788 313.574 84.1138 312.236 84.2318 310.906C84.3496 309.576 84.7478 308.286 85.4 307.122Z" fill="#E9E9E9"/>
<path d="M261.4 164.85C258.916 157.902 261.144 164.71 254.826 146.838C255.86 154.366 256.254 161.968 256.004 169.562C258.292 167.624 260.154 165.952 261.4 164.85Z" fill="#E9E9E9"/>
<path d="M305.6 143.684C296.29 154.284 269.2 161.164 258.708 157.706C259.43 159.682 260.108 161.506 260.684 163.026C271.708 166.112 296.734 160.146 306.93 149.27C306.476 147.37 306.058 145.47 305.6 143.684Z" fill="#E9E9E9"/>
<path d="M280.218 183.964C279.152 195.719 276.678 207.304 272.846 218.468C274.822 214.554 278.128 208.93 283.446 198.594L280.218 183.964Z" fill="#E9E9E9"/>
<path d="M348.048 164.66C347.296 163.071 346.684 161.417 346.224 159.72C348.524 159.818 349.748 160.384 350.224 161.12C351.098 162.46 349.728 164.114 348.048 164.66Z" fill="#E9E9E9"/>
<path d="M329.124 163.254C326.388 164.508 325.324 165.762 325.362 166.674C325.476 167.852 326.92 168.612 329.542 168.156C330.154 166.934 329.374 164.6 329.124 163.254Z" fill="#E9E9E9"/>
<path d="M302.144 130.042C298.838 129.586 294.582 129.13 288.996 128.598C294.288 131.332 299.368 134.457 304.196 137.946C303.4 134.83 302.676 132.094 302.144 130.042Z" fill="#E9E9E9"/>
<path d="M261.6 89.42C260.882 91.9786 259.804 94.4222 258.4 96.678C258.476 95.614 258.476 94.278 258.59 92.612C259.432 91.738 260.42 90.674 261.6 89.42Z" fill="#E9E9E9"/>
<path d="M258.558 72.928C258.33 70.268 257.456 69.728 249.78 69.242C241.648 68.672 241.04 70.002 241.876 74.334C242.446 77.26 243.966 78.096 247.044 78.096C248.944 78.096 251.444 77.754 254.606 77.412C257.038 80.49 258.634 82.086 258.634 80.224C258.634 76.69 262.32 76.766 262.396 82.424C263.764 83.824 265.284 85.502 266.918 87.136C265.246 73.688 264.904 73.498 258.558 72.928Z" fill="#E9E9E9"/>
<path d="M262.282 109.788C263.186 108.444 263.938 107.004 264.524 105.494C263.384 103.86 262.358 102.15 261.324 100.364C260.64 101.964 259.924 103.594 259.31 105.19C259.608 106.783 260.146 108.321 260.91 109.75C260.454 114.044 258.098 144.786 258.098 146.8C259.38 149.466 260.96 151.978 262.81 154.286C264.872 152.041 266.704 149.597 268.282 146.99C267.526 141.29 262.89 111.84 262.282 109.788Z" fill="#E9E9E9"/>
<path d="M214.364 170.968C215.05 170.478 216.454 170.702 218.468 172.032C216.758 173.476 215.77 174.35 215.048 174.958C213.49 173.02 213.454 171.618 214.364 170.968Z" fill="#E9E9E9"/>
<path d="M230.514 185.56C231.692 187.76 231.914 189.208 231.502 189.93C231.474 190.008 231.42 190.075 231.35 190.12C230.666 190.842 228.88 190.462 226.904 188.752C228.31 187.498 230.514 185.56 230.514 185.56Z" fill="#E9E9E9"/>
<path d="M61.3759 202.812C61.2999 203.914 61.2619 205.13 61.2619 206.384C58.4879 206.498 57.1779 206.006 57.1199 205.282C57.0659 204.6 58.4499 203.61 61.3759 202.812Z" fill="#E9E9E9"/>
<path d="M82.7319 202.736C82.8459 203.42 81.8579 204.256 78.8559 204.712C78.2297 203.656 77.9257 202.442 77.9819 201.216C81.0219 201.4 82.6179 202.052 82.7319 202.736Z" fill="#E9E9E9"/>
<path d="M127.496 152.728C126.624 163.39 126.314 174.682 126.096 179.822C108.732 180.24 94.0661 182.938 87.3401 187.878C87.3781 189.93 87.4161 191.944 87.5301 193.878C97.6401 186.554 119.696 185.294 132.218 185.062C130.172 177.482 128.612 163.034 127.496 152.728Z" fill="#E9E9E9"/>
<path d="M88.9641 161.278C88.7361 163.254 88.5461 165.192 88.3941 167.054C86.5701 167.654 84.1761 168.42 81.8201 169.144C79.3501 169.902 76.9181 170.588 75.2461 171.082C79.9815 168.048 84.5601 164.776 88.9641 161.278Z" fill="#E9E9E9"/>
<path d="M139.846 118.11C139.726 118.302 139.586 118.48 139.428 118.642C138.496 119.612 135.524 119.48 132.864 119.062C132.295 117.474 131.984 115.806 131.942 114.12C135.21 117.388 138.554 119.972 139.846 118.11Z" fill="#E9E9E9"/>
<path d="M140.834 91.738C141.062 87.558 135.856 88.394 135.434 90.75C135.121 90.2008 134.636 89.7694 134.055 89.522C133.473 89.2744 132.826 89.2246 132.214 89.3798C131.601 89.535 131.056 89.8868 130.662 90.3814C130.268 90.876 130.048 91.486 130.034 92.118C128.172 89.918 124.372 90.718 125.018 94.056C122.396 91.51 115.67 93.03 126.418 113.588C128.66 111.688 130.712 109.826 132.498 108.154C129.458 103.404 132.954 101.154 134.512 104.24C135.348 105.874 136.912 105.722 136.712 101.124C137.941 100.807 139.137 100.375 140.284 99.832C142.549 98.83 144.476 97.1934 145.832 95.12C147.826 91.928 143.988 88.128 140.834 91.738Z" fill="#E9E9E9"/>
<path d="M131.106 229.184C133.424 248.526 133.994 255.632 133.88 259.66C129.241 246.55 123.872 233.71 117.8 221.2C121.454 223.484 125.862 226.068 131.106 229.184Z" fill="#E9E9E9"/>
<path d="M351.924 180.772L353.4 187.8L359.252 186.546L357.504 178.376C357.198 176.967 356.396 175.713 355.246 174.842C354.096 173.971 352.674 173.54 351.234 173.626C351.76 175.97 351.99 178.371 351.924 180.772Z" fill="#E9E9E9"/>
<path d="M331.67 177.732L331.29 177.808C330.514 177.967 329.776 178.278 329.12 178.725C328.466 179.171 327.906 179.743 327.474 180.408C327.044 181.073 326.748 181.818 326.608 182.598C326.466 183.378 326.482 184.178 326.654 184.952L328.326 193.122L334.178 191.868C334.11 191.542 331.894 178.4 331.67 177.732Z" fill="#E9E9E9"/>
<path d="M351.924 180.772L353.63 188.861L359.482 187.607L357.504 178.376C357.198 176.967 356.396 175.713 355.246 174.842C354.096 173.971 352.674 173.54 351.234 173.626C351.76 175.97 351.99 178.371 351.924 180.772Z" stroke="black" stroke-width="1.5" stroke-linejoin="round"/>
<path d="M331.67 177.732L331.29 177.808C330.514 177.967 329.776 178.278 329.12 178.725C328.466 179.171 327.906 179.744 327.474 180.408C327.044 181.073 326.748 181.818 326.608 182.598C326.466 183.378 326.482 184.178 326.654 184.952L328.534 194.229L334.386 192.975C334.318 192.649 331.894 178.4 331.67 177.732Z" stroke="black" stroke-width="1.5" stroke-linejoin="round"/>
<path d="M59.514 196.618C60.996 195.936 60.996 199.202 59.78 199.582C58.564 199.962 58.6 197.038 59.514 196.618Z" fill="#E9E9E9"/>
<path d="M179.784 198.29C180.556 196.814 183.692 196.994 183.052 198.442C182.412 199.89 178.848 200.084 179.784 198.29Z" fill="#E9E9E9"/>
<path d="M233.516 183.774C233.82 185.332 236.616 183.174 236.138 181.874C235.66 180.574 233.174 182.026 233.516 183.774Z" fill="#E9E9E9"/>
<path d="M344.666 152.31C346.148 152.292 347.066 155.692 345.236 155.654C343.406 155.616 343.07 152.328 344.666 152.31Z" fill="#E9E9E9"/>
<path d="M379.284 186.2L379.664 211.2C379.668 211.324 379.628 211.444 379.552 211.542C379.476 211.638 379.366 211.706 379.246 211.732L370.506 213.594L371.684 219.066L366.022 220.282L364.844 214.81L335.66 221.01L336.838 226.482L331.176 227.698L330 222.23L321.26 224.092C321.142 224.108 321.02 224.086 320.914 224.032C320.806 223.978 320.718 223.892 320.66 223.788L310.86 200.788L319.86 243.272L388.374 228.718L379.284 186.2Z" fill="#E9E9E9"/>
<path d="M378.182 183.66L310.732 198.024L321.372 222.99L329.732 221.204L328.592 215.884L334.254 214.668L335.394 219.988L364.578 213.794L363.476 208.474L369.138 207.258L370.278 212.578L378.6 210.83L378.182 183.66Z" fill="#E9E9E9"/>
<path d="M319.86 243.272L310.21 198.133L378.714 183.54L388.374 228.718L319.86 243.272Z" stroke="black" stroke-width="1.5" stroke-linecap="round" stroke-linejoin="round"/>
<path d="M321.89 195.615L327.26 187.992" stroke="black" stroke-width="1.5" stroke-linecap="round" stroke-linejoin="round"/>
<path d="M349.378 156.49L390 98.464L318.256 48.228L284.094 96.982" stroke="black" stroke-width="1.5" stroke-linecap="round" stroke-linejoin="round"/>
<path d="M278.394 257.874L295.418 233.516" stroke="black" stroke-width="1.5" stroke-linecap="round" stroke-linejoin="round"/>
<path d="M118.224 285.69L212.616 351.772L258.52 286.26" stroke="black" stroke-width="1.5" stroke-linecap="round" stroke-linejoin="round"/>
<path d="M70.762 145.546L60.236 138.174L10 209.918L88.964 265.208" stroke="black" stroke-width="1.5" stroke-linecap="round" stroke-linejoin="round"/>
<path d="M209.462 203.572L191.108 229.792L184.686 225.308" stroke="black" stroke-width="1.5" stroke-linecap="round" stroke-linejoin="round"/>
<path d="M161.658 110.738L182.786 80.528L202.736 94.474L226.296 60.882" stroke="black" stroke-width="1.5" stroke-linecap="round" stroke-linejoin="round"/>
<path d="M211.438 63.466L226.296 60.882L228.918 75.702" stroke="black" stroke-width="1.5" stroke-linecap="round" stroke-linejoin="round"/>
<path d="M69.1659 105.266L82.8459 102.834C90.9879 101.354 88.6579 89.306 80.7179 90.75L73.0799 92.042C64.9459 93.428 63.0019 81.314 70.9519 79.958L84.6319 77.526" stroke="black" stroke-width="1.5" stroke-linecap="round" stroke-linejoin="round"/>
<path d="M73.9541 74.79L79.8441 108.002" stroke="black" stroke-width="1.5" stroke-linecap="round" stroke-linejoin="round"/>
<path d="M205.016 255.518L221.508 252.592" stroke="black" stroke-width="1.5" stroke-linecap="round" stroke-linejoin="round"/>
<path d="M211.818 245.79L214.706 262.32" stroke="black" stroke-width="1.5" stroke-linecap="round" stroke-linejoin="round"/>
<path d="M307.882 286.868L330.948 282.802" stroke="black" stroke-width="1.5" stroke-linecap="round" stroke-linejoin="round"/>
<path d="M317.382 273.302L321.448 296.406" stroke="black" stroke-width="1.5" stroke-linecap="round" stroke-linejoin="round"/>
<path d="M126.09 335.546C129.049 335.546 131.448 333.148 131.448 330.188C131.448 327.228 129.049 324.83 126.09 324.83C123.131 324.83 120.732 327.228 120.732 330.188C120.732 333.148 123.131 335.546 126.09 335.546Z" stroke="black" stroke-width="1.5" stroke-linecap="round" stroke-linejoin="round"/>
<path d="M76.1579 278.2L46.6699 281.886L41.1599 237.686L94.6639 231" stroke="black" stroke-width="1.5" stroke-linecap="round" stroke-linejoin="round"/>
<path d="M140.268 99.902C142.567 98.9072 144.521 97.2572 145.888 95.158C147.826 91.958 144.064 88.128 140.872 91.776C141.1 87.558 135.932 88.432 135.472 90.788C135.156 90.2432 134.671 89.8162 134.091 89.5718C133.51 89.3274 132.866 89.2788 132.256 89.4334C131.645 89.5882 131.102 89.9376 130.708 90.4288C130.314 90.9202 130.09 91.5264 130.072 92.156C128.21 89.956 124.41 90.756 125.056 94.094C122.434 91.548 115.708 93.068 126.456 113.626" stroke="black" stroke-width="1.5" stroke-linecap="round" stroke-linejoin="round"/>
<path d="M132.864 119.062C132.305 117.473 132.007 115.804 131.98 114.12C134.98 117.15 138.098 119.624 139.568 118.486" stroke="black" stroke-width="1.5" stroke-linecap="round" stroke-linejoin="round"/>
<path d="M91.092 144.216C86.95 174.768 86.02 192.1 89.382 208.588C92.444 223.602 97.894 243.89 100.706 253.352C87.634 266.69 62.022 292.264 59.324 295.456" stroke="black" stroke-width="1.5" stroke-linecap="round" stroke-linejoin="round"/>
<path d="M62.25 302.068C59.286 299.636 58.266 296.906 59.324 295.456C60.816 293.412 66.662 293.966 78.096 301.656C88.208 308.456 92.166 313.592 91.282 315.456C90.756 316.56 88.47 316.52 84.708 314.886" stroke="black" stroke-width="1.5" stroke-linecap="round" stroke-linejoin="round"/>
<path d="M163.292 299.978C159.796 299.332 157.84 298.19 158.01 296.558C158.252 294.238 163.102 292.794 175.832 293.518C187.832 294.2 191.232 296.784 191.374 298.686C191.458 299.826 189.816 300.852 185.94 300.852" stroke="black" stroke-width="1.5" stroke-linecap="round" stroke-linejoin="round"/>
<path d="M91.2439 315.4C130.954 272.232 132.684 269.456 133.644 262.352C134.166 258.512 134.024 253.688 131.098 229.14" stroke="black" stroke-width="1.5" stroke-linecap="round" stroke-linejoin="round"/>
<path d="M55.0679 310.238C57.5019 306.058 98.0079 335.318 95.1959 339.536C92.9999 342.842 51.4599 316.434 55.0679 310.238Z" stroke="black" stroke-width="1.5" stroke-linecap="round" stroke-linejoin="round"/>
<path d="M160.822 310.77C161.192 306.21 207.446 314.646 206.764 319.396C206.23 323.12 160.276 317.494 160.822 310.77Z" stroke="black" stroke-width="1.5" stroke-linecap="round" stroke-linejoin="round"/>
<path d="M67.8361 295.874C63.7701 300.092 57.2721 307.874 55.0681 310.2" stroke="black" stroke-width="1.5" stroke-linecap="round" stroke-linejoin="round"/>
<path d="M85.3999 307.122C79.5859 317.648 97.0279 327.642 95.1999 339.536" stroke="black" stroke-width="1.5" stroke-linecap="round" stroke-linejoin="round"/>
<path d="M160.822 310.77C161.81 304.804 163.406 303.626 163.938 293.632" stroke="black" stroke-width="1.5" stroke-linecap="round" stroke-linejoin="round"/>
<path d="M183.812 294.43C183.212 306.932 205.282 307.35 206.802 319.396" stroke="black" stroke-width="1.5" stroke-linecap="round" stroke-linejoin="round"/>
<path d="M158.048 296.558C158.542 284.018 157.022 250.198 156.414 244.688C119.706 221.166 105.57 216.758 103.29 206.384" stroke="black" stroke-width="1.5" stroke-linecap="round" stroke-linejoin="round"/>
<path d="M191.374 298.686C189.056 237.734 188.374 230.668 183.584 223.522C178.906 216.532 175.034 213.566 154.628 201.064" stroke="black" stroke-width="1.5" stroke-linecap="round" stroke-linejoin="round"/>
<path d="M57.12 205.282C54.84 174.844 55.07 163 59.932 155.8C66.932 145.466 87.254 134.252 108.648 128.6C135.514 121.492 146.42 122.482 151.322 126.89C155.322 130.502 156.522 136.166 157.706 173.7C165.058 174.57 182.142 176.63 185.598 177.24C190.5 181.534 191.336 196.24 185.598 201.674C158.77 201.674 146.53 201.376 141.138 197.988C132.81 192.754 131.258 187.766 127.458 152.768C126.586 163.41 126.244 174.654 126.058 179.808" stroke="black" stroke-width="1.5" stroke-linecap="round" stroke-linejoin="round"/>
<path d="M155.502 173.438L157.702 173.698" stroke="black" stroke-width="1.5" stroke-linecap="round" stroke-linejoin="round"/>
<path d="M61.2239 206.384C58.4499 206.46 57.1539 206.004 57.0819 205.282C56.9639 204.104 60.9199 202.232 69.3939 201.406C78.0579 200.56 82.5039 201.558 82.6939 202.698C82.8079 203.382 81.8199 204.218 78.8179 204.674" stroke="black" stroke-width="1.5" stroke-linecap="round" stroke-linejoin="round"/>
<path d="M88.4 167.054C84.638 168.308 78.482 170.17 75.252 171.054C80.0018 168.055 84.5814 164.794 88.97 161.288" stroke="black" stroke-width="1.5" stroke-linecap="round" stroke-linejoin="round"/>
<path d="M82.7321 202.736C82.3521 194.756 81.8201 177.77 81.8201 169.136" stroke="black" stroke-width="1.5" stroke-linecap="round" stroke-linejoin="round"/>
<path d="M56.3999 194.946C59.7059 190.196 79.0859 188.524 82.2779 191.746" stroke="black" stroke-width="1.5" stroke-linecap="round" stroke-linejoin="round"/>
<path d="M174.312 175.718C179.1 180.088 178.644 196.694 172.564 201.634" stroke="black" stroke-width="1.5" stroke-linecap="round" stroke-linejoin="round"/>
<path d="M87.52 193.882C95.346 188.222 111.752 185.334 132.186 185.066" stroke="black" stroke-width="1.5" stroke-linecap="round" stroke-linejoin="round"/>
<path d="M87.3301 187.878C94.6601 182.478 111.53 179.748 131.004 179.746" stroke="black" stroke-width="1.5" stroke-linecap="round" stroke-linejoin="round"/>
<path d="M77.982 201.178C77.9194 202.55 78.321 203.902 79.122 205.016C79.722 205.776 83.722 209.342 84.594 210.64C85.554 212.078 86.038 218.126 85.278 218.772C84.29 219.61 77.64 220.292 74.98 220.292C73.08 220.292 73.536 217.062 79.806 215.466C74.606 215.77 71.104 214.25 70.23 209.728" stroke="black" stroke-width="1.5" stroke-linecap="round" stroke-linejoin="round"/>
<path d="M61.3761 202.812C61.0723 208.398 61.1739 213.998 61.6801 219.57" stroke="black" stroke-width="1.5" stroke-linecap="round" stroke-linejoin="round"/>
<path d="M66.7341 220.064C66.5341 216.606 70.6541 216.15 71.0661 219.464C71.3741 221.934 71.5261 223.682 71.7121 225.664C71.8381 226.264 71.7207 226.888 71.3857 227.402C71.0507 227.914 70.5257 228.274 69.9261 228.4C69.3265 228.526 68.7013 228.408 68.1881 228.074C67.6751 227.738 67.3161 227.214 67.1901 226.614C66.9261 224.44 66.7739 222.254 66.7341 220.064Z" stroke="black" stroke-width="1.5" stroke-linecap="round" stroke-linejoin="round"/>
<path d="M80.4521 219.912C80.7941 221.512 81.0701 222.798 81.3641 224.206C81.5037 224.776 81.4217 225.378 81.1347 225.888C80.8477 226.4 80.3771 226.784 79.8181 226.962C79.2593 227.14 78.6535 227.098 78.1237 226.846C77.5939 226.596 77.1795 226.152 76.9641 225.606C76.5207 223.856 76.1905 222.078 75.9761 220.286" stroke="black" stroke-width="1.5" stroke-linecap="round" stroke-linejoin="round"/>
<path d="M62.3641 220.064C62.3641 216.72 66.3641 216.492 66.5821 219.722C66.7421 222.122 66.7821 223.826 66.8481 225.722C66.9213 226.304 66.7647 226.89 66.4117 227.358C66.0587 227.826 65.5371 228.138 64.9579 228.226C64.3787 228.316 63.7875 228.176 63.3101 227.836C62.8329 227.496 62.5071 226.982 62.4021 226.406C62.2141 224.814 62.3641 223.104 62.3641 220.064Z" stroke="black" stroke-width="1.5" stroke-linecap="round" stroke-linejoin="round"/>
<path d="M75.892 220.292C76.196 222.116 76.392 223.56 76.614 225.156C76.7484 225.754 76.6454 226.38 76.3264 226.902C76.0074 227.424 75.4976 227.802 74.9048 227.954C74.3122 228.108 73.6832 228.024 73.1512 227.722C72.619 227.42 72.2256 226.922 72.054 226.334C71.6896 224.132 71.436 221.912 71.294 219.684C70.986 216.72 73.878 215.808 75.17 217.556" stroke="black" stroke-width="1.5" stroke-linecap="round" stroke-linejoin="round"/>
<path d="M204.864 200C205.312 196.844 201.77 195.93 200.988 198.898C200.678 200.074 200.268 201.672 200 202.898C199.86 203.438 199.937 204.014 200.216 204.498C200.496 204.982 200.954 205.336 201.492 205.486C202.03 205.636 202.606 205.568 203.094 205.296C203.582 205.026 203.946 204.574 204.104 204.038C204.426 202.706 204.68 201.358 204.864 200Z" stroke="black" stroke-width="1.5" stroke-linecap="round" stroke-linejoin="round"/>
<path d="M200.836 199.05C201.654 195.91 197.934 194.752 196.96 197.72C196.574 198.896 196.032 200.566 195.782 201.406C194.892 204.392 198.94 205.702 199.772 203.078C200.23 201.634 200.588 200 200.836 199.05Z" stroke="black" stroke-width="1.5" stroke-linecap="round" stroke-linejoin="round"/>
<path d="M196.732 198.138C197.69 195.126 194.384 193.848 193.008 196.618C192.63 197.38 192.048 198.742 191.526 200.114C191.274 200.618 191.233 201.202 191.411 201.736C191.589 202.27 191.972 202.712 192.476 202.964C192.98 203.216 193.563 203.258 194.098 203.08C194.632 202.902 195.074 202.518 195.326 202.014C195.734 201.136 196.418 199.122 196.732 198.138Z" stroke="black" stroke-width="1.5" stroke-linecap="round" stroke-linejoin="round"/>
<path d="M208.854 200.57C208.956 197.492 205.614 196.77 205.054 199.696C204.822 200.912 204.474 203.296 204.408 203.952C204.432 204.442 204.628 204.906 204.962 205.266C205.296 205.624 205.746 205.854 206.232 205.912C206.72 205.972 207.212 205.856 207.622 205.588C208.032 205.32 208.334 204.916 208.474 204.446C208.674 203.162 208.8 201.868 208.854 200.57Z" stroke="black" stroke-width="1.5" stroke-linecap="round" stroke-linejoin="round"/>
<path d="M178.872 293.784C177.272 242.142 177.846 233.706 174.084 228.12C168.762 220.216 162.37 216.7 132.664 199.088C127.798 196.204 126.356 192.97 126.128 185.288" stroke="black" stroke-width="1.5" stroke-linecap="round" stroke-linejoin="round"/>
<path d="M117.8 221.166C123.853 233.696 129.221 246.546 133.88 259.66" stroke="black" stroke-width="1.5" stroke-linecap="round" stroke-linejoin="round"/>
<path d="M247.082 78.058C249.704 93.058 250.464 95.308 252.82 95.576C255.138 95.84 256.582 94.892 261.636 89.42C261.07 92.048 259.994 94.5392 258.468 96.752" stroke="black" stroke-width="1.5" stroke-linecap="round" stroke-linejoin="round"/>
<path d="M258.558 72.928C258.292 70.306 257.418 69.774 249.818 69.242C241.686 68.672 241.078 70.002 241.914 74.334C242.788 79.084 246.284 78.324 254.606 77.412C257.038 80.49 258.634 82.124 258.634 80.224C258.634 76.69 262.32 76.766 262.396 82.424C263.706 84.2588 265.226 85.9366 266.92 87.424C265.246 73.956 264.908 73.498 258.558 72.928Z" stroke="black" stroke-width="1.5" stroke-linecap="round" stroke-linejoin="round"/>
<path d="M258.562 92.622C258.82 96.022 258.394 100.142 255.936 101.542C248.754 105.684 245.87 107.358 243.434 110.814C238.768 117.432 239.064 121.834 238.19 151.246C229.374 158.846 218.39 167.396 214.364 171.006" stroke="black" stroke-width="1.5" stroke-linecap="round" stroke-linejoin="round"/>
<path d="M215.048 174.958C213.448 173.02 213.448 171.624 214.364 171.006C215.626 170.146 219.26 171.542 224.814 177.884C230.774 184.684 232.288 188.594 231.502 189.968C230.962 190.914 229.032 190.652 226.902 188.79" stroke="black" stroke-width="1.5" stroke-linecap="round" stroke-linejoin="round"/>
<path d="M329.58 168.156C326.958 168.612 325.5 167.854 325.4 166.674C325.268 165.118 328.292 162.7 337.066 160.784C346.912 158.636 350.234 159.984 350.442 161.696C350.432 162.388 350.19 163.056 349.756 163.593C349.32 164.131 348.716 164.507 348.042 164.66" stroke="black" stroke-width="1.5" stroke-linecap="round" stroke-linejoin="round"/>
<path d="M325.4 166.712C319.054 139.01 318.4 136.168 315.786 134.26C312.206 131.648 309.706 130.612 288.958 128.674C294.25 131.408 299.33 134.533 304.158 138.022" stroke="black" stroke-width="1.5" stroke-linecap="round" stroke-linejoin="round"/>
<path d="M352.342 236.366C359.342 240.584 364.73 243.814 366.972 245.41C368.302 253.81 358.536 266.538 352.228 267.868C304.804 241.154 299.108 237.692 294.202 232.268C289.532 227.096 287.894 218.702 280.18 184.008C278.498 183.908 276.842 183.536 275.278 182.906" stroke="black" stroke-width="1.5" stroke-linecap="round" stroke-linejoin="round"/>
<path d="M302.144 130.08C304.272 138.212 309.172 157.136 311.454 170.778C312.706 178.264 314.228 188.378 315.558 196.998" stroke="black" stroke-width="1.5" stroke-linecap="round" stroke-linejoin="round"/>
<path d="M248.868 115.678C248.43 119.897 248.43 124.151 248.868 128.37C249.182 131.262 259.85 161.17 262.168 166.674C244.568 205.016 241.81 212.122 241.306 218.392C240.706 225.792 241.496 230.742 255.632 285.652C264.258 288.198 279.192 283.638 283.258 279.04C279.306 261.978 275.278 244.954 270.908 222.762C272.39 218.506 275.81 213.3 283.41 198.562" stroke="black" stroke-width="1.5" stroke-linecap="round" stroke-linejoin="round"/>
<path d="M366.934 249.096C370.35 249.982 373.702 251.098 376.966 252.44C376.548 262.662 368.454 289.338 362.26 296.748C359.106 291.998 355.8 274.328 355.192 266.576" stroke="black" stroke-width="1.5" stroke-linecap="round" stroke-linejoin="round"/>
<path d="M281.092 280.864C283.284 284.412 285.094 288.182 286.492 292.112C279.196 299.598 257.156 309.478 247.352 310.58C250.428 301.872 254.88 293.712 260.538 286.412" stroke="black" stroke-width="1.5" stroke-linecap="round" stroke-linejoin="round"/>
<path d="M231.462 190.034C239.56 183.756 256.226 169.502 261.446 164.812" stroke="black" stroke-width="1.5" stroke-linecap="round" stroke-linejoin="round"/>
<path d="M223.104 163.71C230.21 164.28 240.242 177.466 239.52 183.546" stroke="black" stroke-width="1.5" stroke-linecap="round" stroke-linejoin="round"/>
<path d="M323 156.186C325.684 150.364 344.09 146.836 347.982 149.986" stroke="black" stroke-width="1.5" stroke-linecap="round" stroke-linejoin="round"/>
<path d="M258.292 97.704C259.128 98.7946 260.19 99.6896 261.408 100.326C265.862 98.3952 270.05 95.9022 273.87 92.908" stroke="black" stroke-width="1.5" stroke-linecap="round" stroke-linejoin="round"/>
<path d="M276.152 94.36C274.552 99.604 268.97 107.508 267.64 109.256C265.152 106.613 263.052 103.632 261.4 100.4C259.976 103.345 258.854 106.427 258.056 109.6C257.322 106.136 257.256 102.563 257.866 99.074" stroke="black" stroke-width="1.5" stroke-linecap="round" stroke-linejoin="round"/>
<path d="M259.4 105.2C259.704 106.791 260.242 108.328 261 109.76C260.544 114.016 258.188 144.76 258.188 146.81C259.456 149.484 261.038 151.997 262.9 154.296C264.942 152.045 266.762 149.602 268.334 147C267.574 141.3 262.934 111.85 262.334 109.8C263.208 108.446 263.946 107.007 264.534 105.506" stroke="black" stroke-width="1.5" stroke-linecap="round" stroke-linejoin="round"/>
<path d="M258.748 157.706C269.16 161.164 296.254 154.286 305.602 143.684" stroke="black" stroke-width="1.5" stroke-linecap="round" stroke-linejoin="round"/>
<path d="M260.724 163.026C271.706 166.142 297.242 160.026 306.97 149.308" stroke="black" stroke-width="1.5" stroke-linecap="round" stroke-linejoin="round"/>
<path d="M256.05 169.562C256.302 161.968 255.908 154.366 254.872 146.838" stroke="black" stroke-width="1.5" stroke-linecap="round" stroke-linejoin="round"/>
<path d="M280.18 183.926C279.114 195.681 276.64 207.266 272.808 218.43" stroke="black" stroke-width="1.5" stroke-linecap="round" stroke-linejoin="round"/>
<path d="M271.63 163.672C273.83 172.944 273.948 173.818 277.178 173.628" stroke="black" stroke-width="1.5" stroke-linecap="round" stroke-linejoin="round"/>
<path d="M343.564 238.228C353.824 244.726 363.096 250.578 366.06 252.478" stroke="black" stroke-width="1.5" stroke-linecap="round" stroke-linejoin="round"/>
<path d="M299.104 155.35C303.588 174.35 308.68 199.962 310.276 216.91C311.302 217.632 312.86 218.658 314.836 219.95" stroke="black" stroke-width="1.5" stroke-linecap="round" stroke-linejoin="round"/>
<path d="M218.468 172.032C214.782 175.11 214.516 175.8 212.92 175.87C209.158 176.036 205.976 174.814 204.674 176.25C202.232 179.084 199.985 182.08 197.948 185.218C196.308 187.618 200.798 189.284 206.308 182.9C207.932 183.742 209.714 184.234 211.54 184.345C213.366 184.457 215.194 184.184 216.908 183.546" stroke="black" stroke-width="1.5" stroke-linecap="round" stroke-linejoin="round"/>
<path d="M187.726 180.2C192.476 180.884 193.46 181.106 194.832 180.314C198.09 178.436 199.432 176.114 201.292 176.666C202.054 176.888 202.812 177.122 203.61 177.388" stroke="black" stroke-width="1.5" stroke-linecap="round" stroke-linejoin="round"/>
<path d="M230.476 185.56C228.804 187.042 224.776 190.614 223.076 192.286" stroke="black" stroke-width="1.5" stroke-linecap="round" stroke-linejoin="round"/>
<path d="M213.262 184.344C223.142 189.436 225.004 192.704 221.698 195.706" stroke="black" stroke-width="1.5" stroke-linecap="round" stroke-linejoin="round"/>
<path d="M215.694 191.45C221.356 194.338 223.094 195.966 221.28 198.45C220.25 199.85 218.848 199.894 213.49 196.17" stroke="black" stroke-width="1.5" stroke-linecap="round" stroke-linejoin="round"/>
<path d="M187.422 199.4C188.904 199.552 190.69 199.78 191.64 199.932" stroke="black" stroke-width="1.5" stroke-linecap="round" stroke-linejoin="round"/>
<path d="M211.134 199.62C212.958 200.836 217.1 204.788 219.038 199.202" stroke="black" stroke-width="1.5" stroke-linecap="round" stroke-linejoin="round"/>
<path d="M208.626 203.382C210.298 203.8 213.338 204.864 214.44 201.782" stroke="black" stroke-width="1.5" stroke-linecap="round" stroke-linejoin="round"/>
<path d="M346.224 159.682C347.174 163.824 349.756 166.978 351.424 174.282C351.956 177.127 352.046 180.036 351.69 182.908C351.536 183.295 351.302 183.644 351.002 183.933C350.702 184.222 350.346 184.444 349.954 184.584C349.562 184.724 349.144 184.78 348.73 184.746C348.316 184.713 347.912 184.591 347.548 184.39" stroke="black" stroke-width="1.5" stroke-linecap="round" stroke-linejoin="round"/>
<path d="M347.63 178.948C347.782 180.604 347.782 182.27 347.63 183.926C347.44 185.676 345.346 187.196 342.83 185.526" stroke="black" stroke-width="1.5" stroke-linecap="round" stroke-linejoin="round"/>
<path d="M342.88 180.316C343 181.82 343.026 183.331 342.956 184.838C342.916 185.408 342.71 185.954 342.364 186.409C342.018 186.864 341.546 187.209 341.008 187.4C340.468 187.591 339.886 187.62 339.33 187.485C338.774 187.35 338.27 187.055 337.88 186.638" stroke="black" stroke-width="1.5" stroke-linecap="round" stroke-linejoin="round"/>
<path d="M337.788 181.494C338.02 182.964 338.096 184.454 338.016 185.94C337.976 186.586 337.694 187.192 337.224 187.637C336.756 188.082 336.134 188.332 335.488 188.337C334.842 188.342 334.216 188.101 333.74 187.663C333.264 187.225 332.972 186.623 332.924 185.978C332.602 182.37 331.966 178.797 331.024 175.3" stroke="black" stroke-width="1.5" stroke-linecap="round" stroke-linejoin="round"/>
<path d="M329.124 163.254C329.556 164.617 329.758 166.043 329.724 167.472C329.572 169.106 326.418 172.412 326.418 174.236C326.518 176.096 327.122 177.894 328.166 179.436" stroke="black" stroke-width="1.5" stroke-linecap="round" stroke-linejoin="round"/>
<path d="M335.356 179.214C337.826 178.454 345.996 176.364 348.542 175.908" stroke="black" stroke-width="1.5" stroke-linecap="round" stroke-linejoin="round"/>
<path d="M136.54 123.2C134.873 122.287 133.574 120.824 132.864 119.06C135.52 119.476 138.518 119.626 139.428 118.64C141.028 116.97 141.518 113.022 140.268 99.9C139.131 100.432 137.947 100.853 136.73 101.16C136.92 105.76 135.358 105.912 134.53 104.276C132.966 101.202 129.476 103.44 132.516 108.19C124.652 115.504 112 126.354 98.2 131.8" stroke="black" stroke-width="1.5" stroke-linecap="round" stroke-linejoin="round"/>
<path d="M350.4 161.696C343.6 127.078 339.6 118.984 332.274 112.22C319.852 100.706 305.6 99.6 281.2 96.64C278.466 96.284 271.782 91.88 266.914 87.426" stroke="black" stroke-width="1.5" stroke-linecap="round" stroke-linejoin="round"/>
<path d="M335.528 220.516L364.712 214.322" stroke="black" stroke-width="1.5" stroke-linecap="round" stroke-linejoin="round"/>
<path d="M334.254 214.668L328.592 215.884L331.176 227.698L336.838 226.482L334.254 214.668Z" stroke="black" stroke-width="1.5" stroke-linecap="round" stroke-linejoin="round"/>
<path d="M369.138 207.258L363.476 208.474L366.022 220.282L371.684 219.066L369.138 207.258Z" stroke="black" stroke-width="1.5" stroke-linecap="round" stroke-linejoin="round"/>
<path d="M370.396 213.13L379.156 211.258L378.796 183.926" stroke="black" stroke-width="1.5" stroke-linecap="round" stroke-linejoin="round"/>
<path d="M329.85 221.756L321.122 223.576L310.288 198.503" stroke="black" stroke-width="1.5" stroke-linecap="round" stroke-linejoin="round"/>
<path d="M62.288 226.524C62.288 226.502 62.364 219.38 62.364 219.38C60.5318 219.648 58.876 220.62 57.748 222.088C56.62 223.556 56.1084 225.406 56.322 227.246L57.4434 235.59L63.3714 234.83L62.288 226.524Z" stroke="black" stroke-width="1.5" stroke-linejoin="round"/>
<path d="M87.3999 223.446C87.1813 221.716 86.3255 220.132 84.9999 219C83.5277 219.52 81.9955 219.852 80.4399 219.988C80.7619 221.388 80.8639 221.884 81.1999 223.56C81.5119 223.872 81.5893 225.298 82.5493 232.454L88.4773 231.694L87.3999 223.446Z" stroke="black" stroke-width="1.5" stroke-linejoin="round"/>
</svg>
